<?xml version="1.0" encoding="utf-8"?>
<!-- Generator: Adobe Illustrator 27.5.0, SVG Export Plug-In . SVG Version: 6.00 Build 0)  -->
<svg version="1.1" id="BASE" xmlns="http://www.w3.org/2000/svg" xmlns:xlink="http://www.w3.org/1999/xlink" x="0px" y="0px"
	 width="32" height="32" viewBox= "0 0 2122 2122" style="enable-background:new 0 0 2122 2122;" xml:space="preserve">
<g>
	<path style="fill:#B5B722;" d="M1843.534,1345.34c0.328-0.611,0.655-1.223,0.982-1.835c0.452-0.85,0.902-1.7,1.353-2.55
		c0.232-0.439,0.465-0.878,0.698-1.317c0.504-0.956,1.007-1.912,1.509-2.868c0.169-0.323,0.339-0.647,0.509-0.97
		c0.548-1.048,1.094-2.095,1.639-3.144c0.1-0.194,0.201-0.388,0.302-0.582c184.964-356.405,162.414-759.123-87.28-999.932
		c-179.881-173.48-439.466-226.111-701.221-168.049l-0.359,0.08c-1.65,0.366-3.301,0.738-4.951,1.113
		c-0.218,0.049-0.435,0.099-0.652,0.148c-1.52,0.347-3.04,0.697-4.56,1.052c-0.396,0.092-0.791,0.185-1.187,0.278
		c-1.365,0.32-2.73,0.643-4.095,0.968c-0.511,0.122-1.022,0.244-1.533,0.368c-1.236,0.297-2.47,0.596-3.706,0.898
		c-0.688,0.168-1.375,0.337-2.063,0.506c-1.052,0.259-2.103,0.521-3.156,0.783c-0.838,0.21-1.675,0.42-2.513,0.632
		c-0.93,0.235-1.86,0.471-2.79,0.709c-0.974,0.249-1.949,0.5-2.923,0.752c-0.779,0.201-1.557,0.404-2.336,0.607
		c-1.115,0.292-2.232,0.585-3.346,0.881c-0.645,0.171-1.29,0.342-1.934,0.514c-1.245,0.332-2.489,0.667-3.733,1.004
		c-0.529,0.143-1.058,0.287-1.586,0.43c-1.374,0.375-2.748,0.752-4.122,1.134c-0.379,0.105-0.759,0.211-1.14,0.316
		c-1.515,0.422-3.03,0.847-4.545,1.277c-0.257,0.073-0.516,0.146-0.773,0.219c-1.612,0.458-3.225,0.921-4.837,1.387
		c-0.171,0.049-0.343,0.099-0.514,0.149c-1.748,0.507-3.496,1.018-5.244,1.535l-0.008,0.003
		c-182.314,53.884-362.402,161.133-514.006,318.33c-222.73,230.948-335.507,519.486-330.423,781.968
		c0.013,0.657,0.029,1.314,0.043,1.971c0.022,1.024,0.044,2.047,0.069,3.07c0.025,0.999,0.054,1.998,0.083,2.996
		c0.019,0.665,0.036,1.33,0.057,1.995c0.037,1.199,0.078,2.397,0.119,3.594c0.016,0.46,0.031,0.922,0.049,1.382
		c0.05,1.354,0.103,2.708,0.159,4.06c0.011,0.281,0.022,0.562,0.035,0.842c0.064,1.504,0.131,3.007,0.203,4.51
		c0.005,0.106,0.01,0.212,0.015,0.318c0.062,1.285,0.127,2.568,0.194,3.852c0.042,0.803,0.087,1.606,0.132,2.409
		c0.025,0.458,0.05,0.917,0.076,1.375c0.054,0.957,0.111,1.915,0.168,2.871c0.016,0.264,0.033,0.527,0.049,0.79
		c0.066,1.073,0.133,2.146,0.202,3.217c0.005,0.068,0.01,0.136,0.013,0.205c0.082,1.258,0.168,2.515,0.256,3.771
		c0.05,0.716,0.102,1.43,0.153,2.145c0.036,0.492,0.071,0.985,0.107,1.477c0.069,0.922,0.139,1.844,0.211,2.764
		c0.018,0.244,0.037,0.487,0.056,0.731c0.083,1.059,0.168,2.117,0.255,3.175c0.001,0.009,0.002,0.017,0.003,0.026
		c0.101,1.222,0.204,2.444,0.31,3.665c0.06,0.691,0.122,1.381,0.184,2.071c0.041,0.465,0.083,0.929,0.125,1.394
		c0.082,0.907,0.166,1.815,0.251,2.721c0.02,0.2,0.038,0.4,0.057,0.6c16.118,170.042,83.842,325.738,205.454,443.023
		c34.187,32.97,71.254,61.572,110.666,85.882c-0.037-0.003-0.075-0.005-0.114-0.007
		c330.741,203.973,826.495,105.655,1173.185-253.826c57.599-59.724,107.843-123.303,150.601-189.288
		c0.019-0.029,0.037-0.058,0.056-0.087c1.101-1.7,2.197-3.401,3.288-5.104c0.04-0.062,0.079-0.124,0.12-0.186
		c2.074-3.238,4.13-6.482,6.168-9.731c0.193-0.306,0.385-0.612,0.576-0.917c0.849-1.355,1.693-2.711,2.534-4.069
		c0.338-0.542,0.673-1.085,1.01-1.628c0.761-1.232,1.522-2.464,2.276-3.696c0.41-0.667,0.817-1.334,1.225-2.002
		c0.498-0.816,0.995-1.632,1.491-2.449c0.671-1.104,1.339-2.209,2.006-3.314c0.342-0.566,0.682-1.132,1.023-1.699
		c0.891-1.481,1.776-2.962,2.659-4.446c0.18-0.303,0.361-0.607,0.541-0.911c0.81-1.364,1.617-2.729,2.421-4.095
		c0.659-1.121,1.316-2.242,1.971-3.365c0.144-0.246,0.29-0.493,0.434-0.74c0.675-1.157,1.347-2.316,2.017-3.474
		c0.124-0.214,0.249-0.429,0.373-0.643c0.72-1.245,1.437-2.491,2.151-3.737c0.06-0.104,0.12-0.208,0.179-0.312
		c0.769-1.342,1.534-2.684,2.296-4.028c0.523-0.92,1.042-1.84,1.561-2.76c0.24-0.426,0.481-0.851,0.721-1.277
		c0.536-0.953,1.07-1.907,1.603-2.861c0.224-0.402,0.45-0.804,0.675-1.207c0.608-1.092,1.215-2.184,1.818-3.277
		c0.115-0.207,0.229-0.414,0.344-0.62c0.646-1.17,1.291-2.341,1.933-3.513c0.088-0.161,0.176-0.321,0.264-0.482
		c0.67-1.224,1.338-2.448,2.003-3.673c0.041-0.078,0.083-0.155,0.125-0.233c0.715-1.317,1.425-2.634,2.134-3.951
		C1842.788,1346.736,1843.161,1346.038,1843.534,1345.34z"/>
	<g>
		<path style="fill:#A7AA20;" d="M1972.439,853.942l-0.044-0.064c-0.486-200.37-68.993-386.566-209.149-521.735
			c-3.807-3.671-7.699-7.211-11.576-10.774c-0.044,0.038-0.089,0.072-0.134,0.11c2.465,2.266,4.969,4.467,7.406,6.776
			c78.372,332.471-4.11,710.996-253.015,1010.409c-225.142,270.691-538.736,419.313-848.918,433.336
			c10.529-58.832-22.944-139.751-90.416-204.822c-75.475-72.789-169.217-102.334-227.674-76.589
			c-0.008,0.004-0.018,0.007-0.027,0.011c-0.292,0.128-0.582,0.259-0.872,0.389c-0.072,0.033-0.145,0.065-0.217,0.097
			c-0.007,0.003-0.014,0.007-0.02,0.01c-0.008,0.004-0.015,0.007-0.022,0.01c-0.285,0.13-0.568,0.262-0.852,0.394
			c-0.04,0.019-0.082,0.037-0.122,0.056c-0.022,0.01-0.045,0.021-0.067,0.031c-0.198,0.093-0.396,0.189-0.594,0.283
			c-0.264,0.127-0.528,0.255-0.791,0.384c-0.229,0.112-0.458,0.224-0.686,0.338c-0.007,0.004-0.014,0.007-0.02,0.01
			c-0.275,0.138-0.548,0.277-0.821,0.418c-0.453,0.233-0.905,0.468-1.354,0.708c-0.365,0.196-0.729,0.394-1.092,0.594
			c-0.134,0.074-0.267,0.148-0.402,0.223c-0.239,0.134-0.477,0.269-0.715,0.405c-0.373,0.214-0.744,0.43-1.115,0.649
			c-0.039,0.023-0.078,0.046-0.117,0.069c-6.493,3.855-12.439,8.511-17.743,13.991c-18.271,18.993-26.422,45.26-25.448,75.078
			c0.001,0.043,0.002,0.087,0.004,0.13c0.017,0.523,0.038,1.049,0.061,1.575c0.01,0.25,0.022,0.5,0.035,0.75
			c0.015,0.331,0.033,0.661,0.051,0.992c0.025,0.467,0.054,0.935,0.084,1.405c0.006,0.101,0.012,0.202,0.019,0.303
			c3.119,47.521,28.631,103.289,72.684,152.685c-19.432-4.874-38.722-10.337-57.846-16.392c17.539,22,36.527,43.07,57.164,62.972
			c34.187,32.97,71.254,61.572,110.666,85.882c-0.037-0.003-0.075-0.005-0.114-0.007
			c330.741,203.973,826.495,105.655,1173.185-253.826c57.599-59.724,107.843-123.303,150.601-189.288
			c0.019-0.029,0.037-0.058,0.056-0.087c1.101-1.7,2.197-3.401,3.288-5.104c0.04-0.062,0.079-0.124,0.12-0.186
			c2.074-3.238,4.13-6.482,6.168-9.731c0.193-0.306,0.385-0.612,0.576-0.917c0.849-1.355,1.693-2.711,2.534-4.069
			c0.338-0.542,0.673-1.085,1.01-1.628c0.761-1.232,1.522-2.464,2.276-3.696c0.41-0.667,0.817-1.334,1.225-2.002
			c0.498-0.816,0.995-1.632,1.491-2.449c0.671-1.104,1.339-2.209,2.006-3.314c0.342-0.566,0.682-1.132,1.023-1.699
			c0.891-1.481,1.776-2.962,2.659-4.446c0.18-0.303,0.361-0.607,0.541-0.911c0.81-1.364,1.617-2.729,2.421-4.095
			c0.659-1.121,1.316-2.242,1.971-3.365c0.144-0.246,0.29-0.493,0.434-0.74c0.675-1.157,1.347-2.316,2.017-3.474
			c0.124-0.214,0.249-0.429,0.373-0.643c0.72-1.245,1.437-2.491,2.151-3.737c0.06-0.104,0.12-0.208,0.179-0.312
			C1923.645,1206.457,1972.869,1025.012,1972.439,853.942z"/>
		<path style="fill:#93971C;" d="M566.592,1567.177c-75.475-72.789-169.217-102.334-227.674-76.589
			c-0.008,0.004-0.018,0.007-0.027,0.011c-0.292,0.128-0.582,0.259-0.872,0.389c-0.072,0.033-0.145,0.065-0.217,0.097
			c-0.007,0.003-0.014,0.007-0.02,0.01c-0.008,0.004-0.015,0.007-0.022,0.01c-0.285,0.13-0.568,0.262-0.852,0.394
			c-0.04,0.019-0.082,0.037-0.122,0.056c-0.022,0.01-0.045,0.021-0.067,0.031c-0.198,0.093-0.396,0.189-0.594,0.283
			c-0.264,0.127-0.528,0.255-0.791,0.384c-0.229,0.112-0.458,0.224-0.686,0.338c-0.007,0.004-0.014,0.007-0.02,0.01
			c-0.275,0.138-0.548,0.277-0.821,0.418c-0.453,0.233-0.905,0.468-1.354,0.708c-0.365,0.196-0.729,0.394-1.092,0.594
			c-0.134,0.074-0.267,0.148-0.402,0.223c-0.239,0.134-0.477,0.269-0.715,0.405c-0.373,0.214-0.744,0.43-1.115,0.649
			c-0.039,0.023-0.078,0.046-0.117,0.069c-6.493,3.855-12.439,8.511-17.743,13.991c-18.271,18.993-26.422,45.26-25.448,75.078
			c0.001,0.043,0.002,0.087,0.004,0.13c0.017,0.523,0.038,1.049,0.061,1.575c0.01,0.25,0.022,0.5,0.035,0.75
			c0.015,0.331,0.033,0.661,0.051,0.992c0.025,0.467,0.054,0.935,0.084,1.405c0.006,0.101,0.012,0.202,0.019,0.303
			c3.119,47.521,28.631,103.289,72.684,152.685c6.087,6.826,12.527,13.531,19.313,20.076
			c88.912,85.748,203.191,111.502,255.249,57.523c12.553-13.017,20.34-29.482,23.686-48.177
			C667.537,1713.167,634.064,1632.248,566.592,1567.177z"/>
		<path style="fill:#7F8318;" d="M328.203,1550.791c43.721-45.105,114.227-53.226,182.832-27.478
			c-65.005-41.621-133.765-53.577-178.584-29.584c-0.365,0.196-0.729,0.394-1.092,0.594c-0.134,0.074-0.267,0.148-0.402,0.223
			c-0.239,0.134-0.477,0.269-0.715,0.405c-0.373,0.214-0.744,0.43-1.115,0.649c-0.039,0.023-0.078,0.046-0.117,0.069
			c-6.493,3.855-12.439,8.511-17.743,13.991c-18.271,18.993-26.422,45.26-25.448,75.078c0.001,0.043,0.002,0.087,0.004,0.13
			c0.017,0.523,0.038,1.049,0.061,1.575c0.01,0.25,0.022,0.5,0.035,0.75c0.015,0.331,0.033,0.661,0.051,0.992
			c0.025,0.467,0.054,0.935,0.084,1.405c0.006,0.101,0.012,0.202,0.019,0.303c0.767,11.493,2.845,23.469,6.184,35.724
			C296.58,1597.103,308.504,1571.354,328.203,1550.791z"/>
		
			<ellipse transform="matrix(0.7508 -0.6605 0.6605 0.7508 -339.7238 821.1183)" style="fill:#C4C32F;" cx="918.329" cy="860.78" rx="781.729" ry="501.514"/>
		<path style="fill:#D8D44B;" d="M1484.365,530.164c-5.866-13.528-40.739-93.967-113.505-110.679
			c-82.25-18.889-166.072,54.402-200.576,84.573c-64.087,56.036-89.925,109.085-126.749,170.447
			c-75.873,126.428-176.655,294.364-338.39,396.003c-92.791,58.312-153.135,61.804-203.587,140.041
			c-4.735,7.342-69.978,111.157-28.826,176.7c17.394,27.702,53.016,47.324,131.473,51.263
			c222.919,11.191,425.622-122.6,438.729-131.466C1327.238,1114.759,1575.414,740.18,1484.365,530.164z"/>
		<path style="fill:#FFFFFF;" d="M557.125,647.796c43.047-14.497,74.79-53.665,109.52-81.728
			c36.866-29.789,75.791-56.913,116.724-80.824c40.449-23.629,82.23-44.323,124.078-65.255
			c41.176-20.597,95.109-35.833,127.219-69.404c14.048-14.687,8.35-40.75-12.153-46.032
			c-47.837-12.325-103.268,10.382-147.659,27.888c-48.441,19.103-94.203,45.668-136.181,76.338
			c-40.501,29.59-79.697,61.646-114.817,97.525c-32.796,33.506-78.043,75.151-84.667,123.557
			C537.814,639.905,545.374,651.753,557.125,647.796z"/>
		<path style="fill:#FFFFFF;" d="M438.473,853.85c14.22-9.127,26.795-29.55,35.57-43.889c10.288-16.812,22.022-40.75,22.67-60.442
			c0.72-21.887-23.247-32.044-40.833-23.432c-19.879,9.736-35.936,37.899-41.217,58.84c-4.553,18.053-6.391,47.43,3.861,63.692
			C422.591,855.07,431.651,858.228,438.473,853.85z"/>
		<path style="fill:#FFFFFF;" d="M1360.941,780.272c38.107-0.218,61.78-55.089,69.634-85.748
			c9.973-38.93,7.924-94.377-14.276-128.696c-21.997-34.005-72.387-19.69-74.666,20.223c-1.137,19.927,2.818,39.85,1.92,59.969
			c-0.837,18.758-2.836,37.896-6.197,56.365C1332.81,727.371,1319.055,780.511,1360.941,780.272z"/>
		<path style="fill:#FFFFFF;" d="M567.369,1366.952c17.918,0.597,29.042-14.681,30.782-30.782
			c1.927-17.838-10.458-29.947-12.407-46.749c-1.55-13.37,5.023-27.522,9.89-39.605c5.467-13.575-3.661-31.069-15.449-37.964
			c-13.596-7.952-29.248-4.478-40.738,5.257C498.073,1252.164,498.108,1364.643,567.369,1366.952z"/>
		<path style="fill:#7F8318;" d="M443.287,1721.238c15.143,15.31,32.871,29.064,52.285,32.391
			c13.022,2.232,23.822-9.986,17.235-22.42c-5.383-10.161-13.396-19.045-22.212-27.407c2.453-1.351,4.809-2.855,7.051-4.522
			c10.294-7.65,11.477-27.283-3.967-30.356c-11.225-2.234-22.828-2.064-34.484-1.896c0.424-2.423,0.811-4.791,1.167-7.088
			c5.092-32.905,5.299-68.961-8.917-99.401c-2.667-5.71-10.537-3.318-12.307,1.609c-8.273,23.031-12.141,47.67-17.036,71.908
			c-8.278-9.971-16.204-20.202-23.556-30.711c-7.812-11.169-29.438-4.733-23.793,10.031c5.949,15.558,12.465,30.446,20.24,44.626
			c-9.387-2.846-18.721-5.976-28.274-8.788c-15.042-4.428-25.02,14.704-14.85,25.509c12.252,13.015,31.282,24.16,52.278,31.094
			c-3.665,11.374-7.734,22.396-6.627,34.546c0.454,4.986,3.637,10.019,7.94,12.742c2.732,1.729,5.914,2.526,9.137,1.788
			c1.518-0.348,3.044-1.035,4.536-2.127C429.424,1745.233,437.267,1733.98,443.287,1721.238z"/>
		<path style="fill:#93971C;" d="M1972.439,853.942c-85.567,268.958-292.288,542.551-591.33,745.833
			c-299.608,203.633-630.449,295.057-912.365,275.264c-0.037-0.003-0.075-0.005-0.114-0.007
			c330.741,203.973,826.495,105.655,1173.185-253.826c57.599-59.724,107.843-123.303,150.601-189.288
			c0.019-0.029,0.037-0.058,0.056-0.087c1.101-1.7,2.197-3.401,3.288-5.104c0.04-0.062,0.079-0.124,0.12-0.186
			c2.074-3.238,4.13-6.482,6.168-9.731c0.193-0.306,0.385-0.612,0.576-0.917c0.849-1.355,1.693-2.711,2.534-4.069
			c0.338-0.542,0.673-1.085,1.01-1.628c0.761-1.232,1.522-2.464,2.276-3.696c0.41-0.667,0.817-1.334,1.225-2.002
			c0.498-0.816,0.995-1.632,1.491-2.449c0.671-1.104,1.339-2.209,2.006-3.314c0.342-0.566,0.682-1.132,1.023-1.699
			c0.891-1.481,1.776-2.962,2.659-4.446c0.18-0.303,0.361-0.607,0.541-0.911c0.81-1.364,1.617-2.729,2.421-4.095
			c0.659-1.121,1.316-2.242,1.971-3.365c0.144-0.246,0.29-0.493,0.434-0.74c0.675-1.157,1.347-2.316,2.017-3.474
			c0.124-0.214,0.249-0.429,0.373-0.643c0.72-1.245,1.437-2.491,2.151-3.737c0.06-0.104,0.12-0.208,0.179-0.312
			C1923.645,1206.457,1972.869,1025.012,1972.439,853.942z"/>
	</g>
</g>
</svg>
